<?xml version="1.0" encoding="UTF-8"?>
<svg id="Layer_1" xmlns="http://www.w3.org/2000/svg" viewBox="0 0 441.41 144">
  <defs>
    <style>
      .cls-1 {
        fill: #818991;
      }

      .cls-2 {
        fill: #2563eb;
      }
    </style>
  </defs>
  <path class="cls-1" d="M63.58,75.22c-2.36,0-4.25,1.91-4.25,4.27,0,.15-.02.3,0,.45v7.81c0,7.32-6.84,6.84-6.84,6.84h-2.76s-5.9,0-5.9,0c-1.48,3.26-4.76,5.52-8.56,5.52-5.19,0-9.4-4.21-9.4-9.4s4.21-9.4,9.4-9.4c3.81,0,7.09,2.27,8.56,5.52h.03s0,0,0,0c.81,0,1.71,0,2.72,0,5.55,0,4.95-4.95,4.95-4.95v-19.78s.6-4.95-4.95-4.95c-1.01,0-1.91,0-2.72,0,0,0,0,0,0,0h-.03c-1.48,3.26-4.76,5.52-8.56,5.52-5.19,0-9.4-4.21-9.4-9.4s4.21-9.4,9.4-9.4c3.81,0,7.09,2.27,8.56,5.52h5.9s2.76,0,2.76,0c0,0,6.84-.49,6.84,6.84v7.81c-.02.15,0,.3,0,.45,0,2.36,1.89,4.27,4.25,4.27s4.27-1.91,4.27-4.27c0-.18.02-.36,0-.53v-21.65s-.13-4.27-4.3-4.27h-2.74c-1.5,3.19-4.75,5.41-8.52,5.41-5.2,0-9.41-4.21-9.41-9.41s4.21-9.41,9.41-9.41c3.71,0,6.92,2.15,8.45,5.27h7.08V6.18C64.48,2.39,59.59,0,54.14,0,44.06,0,35.88,8.18,35.88,18.26c0,1.97.32,3.87.9,5.65-2.18-.81-4.55-1.26-7.02-1.26-11.12,0-20.14,9.02-20.14,20.14,0,3.36.83,6.52,2.28,9.31C4.89,55.86.08,63.35,0,71.99h0s0,0,0,.01c0,0,0,0,0,.01h0c.08,8.64,4.89,16.12,11.9,19.89-1.45,2.78-2.28,5.95-2.28,9.31,0,11.12,9.02,20.14,20.14,20.14,2.47,0,4.83-.45,7.02-1.26-.58,1.78-.9,3.68-.9,5.65,0,10.09,8.18,18.26,18.26,18.26,5.45,0,10.34-2.39,13.69-6.18v-23.72h-7.08c-1.53,3.12-4.74,5.27-8.45,5.27-5.2,0-9.41-4.21-9.41-9.41s4.21-9.41,9.41-9.41c3.76,0,7.01,2.21,8.52,5.41h2.74c4.17,0,4.3-4.27,4.3-4.27v-21.65c.02-.17,0-.35,0-.53,0-2.36-1.91-4.27-4.27-4.27Z"/>
  <path class="cls-2" d="M79.65,75.22c2.36,0,4.25,1.91,4.25,4.27,0,.15.02.3,0,.45,0,.91,0,2.79,0,7.81,0,7.32,6.84,6.84,6.84,6.84h2.76s5.9,0,5.9,0c1.48,3.26,4.76,5.52,8.56,5.52,5.19,0,9.4-4.21,9.4-9.4s-4.21-9.4-9.4-9.4c-3.81,0-7.09,2.27-8.56,5.52h-.03s0,0,0,0c-.81,0-1.71,0-2.72,0-5.55,0-4.95-4.95-4.95-4.95v-8.13s0-3.51,0-3.51v-8.13s-.6-4.95,4.95-4.95c1.01,0,1.91,0,2.72,0,0,0,0,0,0,0h.03c1.48,3.26,4.76,5.52,8.56,5.52,5.19,0,9.4-4.21,9.4-9.4,0-5.19-4.21-9.4-9.4-9.4-3.81,0-7.09,2.27-8.56,5.52h-5.9s0,0,0,0h-2.76s-6.84-.49-6.84,6.84c0,5.01,0,6.9,0,7.81.02.15,0,.3,0,.45,0,2.36-1.89,4.27-4.25,4.27s-4.27-1.91-4.27-4.27c0-.18-.02-.36,0-.53v-21.65s.13-4.27,4.3-4.27h2.74c1.5,3.19,4.75,5.41,8.52,5.41,5.2,0,9.41-4.21,9.41-9.41s-4.21-9.41-9.41-9.41c-3.71,0-6.92,2.15-8.45,5.27h-7.08V6.18C78.75,2.39,83.64,0,89.09,0c10.09,0,18.26,8.18,18.26,18.26,0,1.97-.32,3.87-.9,5.65,2.18-.81,4.55-1.26,7.02-1.26,11.12,0,20.14,9.02,20.14,20.14,0,3.36-.83,6.52-2.28,9.31,7.02,3.77,11.82,11.25,11.9,19.89h0s0,0,0,.01c0,0,0,0,0,.01h0c-.08,8.64-4.89,16.12-11.9,19.89,1.45,2.78,2.28,5.95,2.28,9.31,0,11.12-9.02,20.14-20.14,20.14-2.47,0-4.83-.45-7.02-1.26.58,1.78.9,3.68.9,5.65,0,10.09-8.18,18.26-18.26,18.26-5.45,0-10.34-2.39-13.69-6.18v-23.72h7.08c1.53,3.12,4.74,5.27,8.45,5.27,5.2,0,9.41-4.21,9.41-9.41,0-5.2-4.21-9.41-9.41-9.41-3.76,0-7.01,2.21-8.52,5.41-.87,0-1.8,0-2.74,0-4.17,0-4.3-4.27-4.3-4.27v-21.65c-.02-.17,0-.35,0-.53,0-2.36,1.91-4.27,4.27-4.27Z"/>
  <g>
    <path class="cls-1" d="M434.07,71.57c-1.01,0-1.95-.19-2.83-.56-.88-.38-1.65-.9-2.31-1.57-.66-.67-1.18-1.48-1.57-2.41s-.58-1.97-.58-3.11.19-2.17.58-3.11.91-1.73,1.57-2.41c.66-.67,1.43-1.2,2.31-1.57.88-.38,1.83-.56,2.83-.56s1.96.19,2.85.56c.89.38,1.67.9,2.33,1.57.66.67,1.18,1.48,1.57,2.41s.58,1.97.58,3.11-.19,2.17-.58,3.11-.91,1.73-1.57,2.41c-.66.67-1.44,1.2-2.33,1.57-.89.38-1.84.56-2.85.56ZM434.07,70.13c.8,0,1.56-.15,2.27-.45.71-.3,1.33-.72,1.85-1.26.52-.54.93-1.2,1.22-1.96.3-.76.45-1.61.45-2.54s-.15-1.74-.45-2.5-.71-1.42-1.22-1.98c-.52-.56-1.13-.99-1.85-1.3-.71-.31-1.47-.47-2.27-.47s-1.59.16-2.29.47c-.7.31-1.3.74-1.8,1.3-.51.56-.91,1.22-1.2,1.98-.3.76-.45,1.6-.45,2.5s.15,1.78.45,2.54c.3.76.7,1.42,1.2,1.96.5.54,1.11.96,1.8,1.26.7.3,1.46.45,2.29.45ZM431.27,67.76v-7.88h2.95c.83,0,1.54.19,2.14.56s.89,1.03.89,1.96c0,.47-.13.9-.39,1.3-.26.4-.61.68-1.05.83l1.79,3.22h-1.79l-1.36-2.72h-1.59v2.72h-1.59ZM432.87,63.8h1.01c1.11,0,1.67-.44,1.67-1.32,0-.39-.12-.7-.35-.93-.23-.23-.65-.35-1.24-.35h-1.09v2.6Z"/>
    <g>
      <path class="cls-1" d="M165.32,55.74h26.62v6.4h-19.08v8.94h16.17v6.45h-16.17v15.39h-7.54v-37.18Z"/>
      <path class="cls-1" d="M212.58,92.92v-3.12h-.16c-1.82,2.44-3.9,3.85-7.64,3.85-5.93,0-9.26-3.8-9.26-9.62v-17.78h7.02v16.59c0,3.12,1.4,4.84,4.42,4.84,3.33,0,5.36-2.5,5.36-6.03v-15.39h7.07v26.68h-6.81Z"/>
      <path class="cls-1" d="M223.97,84.29h6.55c.47,3.07,2.65,4.42,5.82,4.42s4.89-1.2,4.89-3.07c0-2.55-3.38-2.81-7.02-3.54-4.78-.94-9.46-2.24-9.46-8.06s4.78-8.53,10.87-8.53c7.02,0,10.92,3.48,11.44,8.84h-6.4c-.31-2.86-2.13-3.9-5.15-3.9-2.76,0-4.58,1.04-4.58,2.96,0,2.29,3.54,2.5,7.33,3.28,4.47.94,9.41,2.18,9.41,8.42,0,5.36-4.58,8.58-11.23,8.58-7.75,0-12.06-3.74-12.48-9.41Z"/>
      <path class="cls-1" d="M252.52,55.74h7.07v6.34h-7.07v-6.34ZM252.52,66.24h7.07v26.68h-7.07v-26.68Z"/>
      <path class="cls-1" d="M264.53,79.61c0-7.96,5.67-14.09,13.94-14.09s13.94,6.14,13.94,14.09-5.67,14.09-13.94,14.09-13.94-6.14-13.94-14.09ZM285.23,79.61c0-5.2-2.44-8.74-6.76-8.74s-6.76,3.54-6.76,8.74,2.39,8.68,6.76,8.68,6.76-3.48,6.76-8.68Z"/>
      <path class="cls-1" d="M304.26,69.88h.16c1.82-2.86,4.26-4.37,7.9-4.37,5.51,0,9.2,4.16,9.2,9.98v17.42h-7.07v-16.38c0-2.86-1.66-4.89-4.63-4.89-3.12,0-5.41,2.5-5.41,6.14v15.13h-7.07v-26.68h6.92v3.64Z"/>
      <path class="cls-1" d="M328.13,55.74h10.61l5.25,18.67c1.3,4.68,2.34,10.04,2.34,10.04h.1s.99-5.36,2.29-10.04l5.25-18.67h10.76v37.18h-7.02v-21.32c0-3.02.31-7.7.31-7.7h-.1s-.83,4.37-1.61,7.07l-6.4,21.95h-7.23l-6.24-21.95c-.78-2.7-1.61-7.07-1.61-7.07h-.1s.31,4.68.31,7.7v21.32h-6.92v-37.18Z"/>
      <path class="cls-1" d="M387.51,89.96h-.1c-1.35,2.03-3.28,3.59-7.85,3.59-5.46,0-9.31-2.86-9.31-8.16,0-5.88,4.78-7.75,10.71-8.58,4.42-.62,6.45-.99,6.45-3.02,0-1.92-1.51-3.17-4.47-3.17-3.33,0-4.94,1.2-5.15,3.74h-6.29c.21-4.68,3.69-8.79,11.49-8.79s11.23,3.59,11.23,9.83v13.57c0,2.03.31,3.22.94,3.69v.26h-6.81c-.42-.52-.68-1.77-.83-2.96ZM387.56,83.51v-4c-1.25.73-3.17,1.14-4.94,1.56-3.69.83-5.51,1.66-5.51,4.16s1.66,3.38,4.16,3.38c4.06,0,6.29-2.5,6.29-5.1Z"/>
      <path class="cls-1" d="M400.35,66.24h6.81v3.33h.16c1.72-2.34,4.21-4.06,7.85-4.06,7.07,0,11.6,5.77,11.6,14.09s-4.68,14.09-11.54,14.09c-3.74,0-6.19-1.51-7.7-3.8h-.1v11.75h-7.07v-35.41ZM419.59,79.82c0-5.04-1.77-8.58-6.14-8.58s-6.19,3.8-6.19,8.58,2.24,8.01,6.45,8.01c3.59,0,5.88-2.96,5.88-8.01Z"/>
    </g>
  </g>
</svg>